:FULLY-SPECIFIED
:FORCE-ALL-JOINTS-BE-3DOF
:DEGREES
204
root 4.85773 15.0674 -25.4186 7.20756 -0.454568 5.45272
lfemur 6.23083 -2.41976 1.29582
ltibia 6.88518 -0 0
lfoot -33.7239 -13.6487 -0.0329661
ltoes 48.1195 -0 0
rfemur -30.2308 -19.1472 -8.55241
rtibia 49.8616 -0 0
rfoot -27.3525 16.7082 0.00292279
rtoes 59.7877 -0 0
lowerback -3.02614 -1.90865 -0.460213
upperback -0.544955 -2.4587 -7.43509
thorax 0.821381 -1.24105 -7.60365
lowerneck -11.676 0.534385 6.11496
upperneck 3.4138 -0.360541 2.51777
head 3.16871 0.024595 -0.273657
lclavicle 0 0 0
lhumerus -58.3282 -45.5081 114.867
lradius 54.6486 -0 0
lwrist 27.2187 0 0
lhand 39.1707 31.3246 0.0124494
lfingers 0 0 0
lthumb 61.7023 43.1694 0.0074678
rclavicle 0 0 0
rhumerus -9.92807 -4.77855 -12.5204
rradius 74.6195 -0 0
rwrist -28.2959 0 0
rhand -10.7129 -44.184 8.551
rfingers 0 0 0
rthumb 14.8644 27.2134 -27.0878
205
root 4.84125 15.0539 -25.429 7.30156 -0.534714 5.35927
lfemur 6.08156 -2.64609 1.40809
ltibia 7.01022 -0 0
lfoot -34.0679 -12.9653 -0.0309269
ltoes 48.0767 -0 0
rfemur -30.7622 -19.5722 -8.26017
rtibia 50.3416 -0 0
rfoot -27.302 17.1213 0.00274202
rtoes 59.9119 -0 0
lowerback -2.71224 -1.81662 -0.514782
upperback -0.593159 -2.35229 -7.35558
thorax 0.614731 -1.19121 -7.46732
lowerneck -11.4852 0.564467 6.26639
upperneck 3.42027 -0.320911 2.42383
head 3.13546 0.041271 -0.328406
lclavicle 0 0 0
lhumerus -58.6504 -45.6658 115.346
lradius 54.6952 -0 0
lwrist 26.7122 0 0
lhand 39.0133 30.7606 0.0116794
lfingers 0 0 0
lthumb 61.5705 42.7653 0.00700593
rclavicle 0 0 0
rhumerus -9.51498 -11.8375 -13.2569
rradius 72.7196 -0 0
rwrist -27.1118 0 0
rhand -21.3649 -50.2876 7.99079
rfingers 0 0 0
rthumb 1.60286 46.7105 -25.0447
206
root 4.82725 15.043 -25.4383 7.39002 -0.609893 5.27132
lfemur 5.94084 -2.85852 1.51416
ltibia 7.12772 -0 0
lfoot -34.3912 -12.3231 -0.0252711
ltoes 48.0366 -0 0
rfemur -31.265 -19.9692 -7.98101
rtibia 50.7928 -0 0
rfoot -27.2546 17.5096 0.00224063
rtoes 60.0286 -0 0
lowerback -2.41735 -1.72987 -0.565601
upperback -0.638321 -2.25223 -7.28095
thorax 0.420642 -1.14392 -7.33938
lowerneck -11.3058 0.592276 6.40879
upperneck 3.42629 -0.28366 2.33555
head 3.10419 0.0569135 -0.379866
lclavicle 0 0 0
lhumerus -58.9557 -45.8123 115.798
lradius 54.7391 -0 0
lwrist 26.2362 0 0
lhand 38.8654 30.2307 0.00954367
lfingers 0 0 0
lthumb 61.4467 42.3856 0.00572486
rclavicle 0 0 0
rhumerus -9.02711 -18.4657 -14.0205
rradius 70.9342 -0 0
rwrist -25.9991 0 0
rhand -31.2452 -55.8239 6.46021
rfingers 0 0 0
rthumb -9.24672 63.6763 -19.7103
207
root 4.81597 15.0347 -25.4461 7.46781 -0.675803 5.19399
lfemur 5.81692 -3.04486 1.60776
ltibia 7.23091 -0 0
lfoot -34.675 -11.7592 -0.0173165
ltoes 48.0013 -0 0
rfemur -31.7093 -20.316 -7.73221
rtibia 51.189 -0 0
rfoot -27.213 17.8505 0.00153541
rtoes 60.131 -0 0
lowerback -2.15845 -1.65347 -0.609859
upperback -0.677873 -2.1643 -7.21547
thorax 0.250282 -1.10204 -7.22715
lowerneck -11.1482 0.616331 6.53391
upperneck 3.43154 -0.250938 2.25803
head 3.07672 0.0706276 -0.425065
lclavicle 0 0 0
lhumerus -59.2259 -45.9395 116.197
lradius 54.7776 -0 0
lwrist 25.8181 0 0
lhand 38.7355 29.7652 0.00653976
lfingers 0 0 0
lthumb 61.338 42.0521 0.003923
rclavicle 0 0 0
rhumerus -8.50044 -24.2806 -14.771
rradius 69.3662 -0 0
rwrist -25.022 0 0
rhand -39.7397 -60.3923 4.36255
rfingers 0 0 0
rthumb -16.8333 77.0621 -12.883
208
root 4.80763 15.0288 -25.4521 7.52975 -0.728167 5.1324
lfemur 5.71809 -3.19297 1.68253
ltibia 7.31301 -0 0
lfoot -34.9007 -11.3105 -0.00899262
ltoes 47.9732 -0 0
rfemur -32.0647 -20.5906 -7.53181
rtibia 51.5043 -0 0
rfoot -27.1799 18.1218 0.000797387
rtoes 60.2126 -0 0
lowerback -1.95252 -1.59254 -0.644824
upperback -0.709267 -2.09432 -7.16343
thorax 0.1148 -1.06847 -7.13795
lowerneck -11.0227 0.635223 6.63352
upperneck 3.43567 -0.224898 2.19635
head 3.05486 0.0815233 -0.461032
lclavicle 0 0 0
lhumerus -59.4422 -46.0398 116.516
lradius 54.8082 -0 0
lwrist 25.4855 0 0
lhand 38.6322 29.3949 0.00339624
lfingers 0 0 0
lthumb 61.2515 41.7868 0.00203734
rclavicle 0 0 0
rhumerus -8 -28.9019 -15.4392
rradius 68.1187 -0 0
rwrist -24.2445 0 0
rhand -46.3477 -63.7669 2.23216
rfingers 0 0 0
rthumb -21.4921 86.7866 -6.40071
209
root 4.80246 15.0254 -25.456 7.57071 -0.76272 5.09169
lfemur 5.6527 -3.29073 1.73206
ltibia 7.36724 -0 0
lfoot -35.0498 -11.0142 -0.00252499
ltoes 47.9547 -0 0
rfemur -32.3003 -20.7714 -7.39824
rtibia 51.7125 -0 0
rfoot -27.158 18.301 0.000223902
rtoes 60.2664 -0 0
lowerback -1.81651 -1.55222 -0.667799
upperback -0.729969 -2.04807 -7.12907
thorax 0.0253373 -1.04619 -7.07907
lowerneck -10.9398 0.647583 6.69933
upperneck 3.43839 -0.207696 2.15561
head 3.04042 0.088713 -0.484792
lclavicle 0 0 0
lhumerus -59.5857 -46.1055 116.728
lradius 54.8285 -0 0
lwrist 25.2658 0 0
lhand 38.5639 29.1503 0.000953634
lfingers 0 0 0
lthumb 61.1943 41.6115 0.000572072
rclavicle 0 0 0
rhumerus -7.62154 -31.9513 -15.9241
rradius 67.2947 -0 0
rwrist -23.7309 0 0
rhand -50.6353 -65.85 0.619757
rfingers 0 0 0
rthumb -23.9175 92.8607 -1.74129
210
root 4.74836 15.0333 -25.5282 7.5855 -0.77519 5.07698
lfemur 5.62906 -3.32602 1.74998
ltibia 7.38682 0 0
lfoot -35.1036 -10.9072 0
ltoes 47.948 0 0
rfemur -32.3856 -20.8365 -7.34977
rtibia 51.7877 0 0
rfoot -27.1501 18.3657 0
rtoes 60.2859 0 0
lowerback -1.7674 -1.53765 -0.676072
upperback -0.737438 -2.03137 -7.11667
thorax -0.00696293 -1.03812 -7.05782
lowerneck -10.9099 0.652023 6.7231
upperneck 3.43937 -0.201483 2.1409
head 3.0352 0.0913078 -0.493372
lclavicle 1.92821e-14 5.40694e-14 0
lhumerus -59.6377 -46.1292 116.804
lradius 54.8358 0 0
lwrist 25.1865 0 0
lhand 38.5393 29.062 0
lfingers 7.12502 0 0
lthumb 61.1737 41.5482 0
rclavicle 1.92821e-14 5.40694e-14 0
rhumerus -7.47416 -33.0518 -16.1092
rradius 66.9971 0 0
rwrist -23.5455 0 0
rhand -52.1685 -66.5716 0
rfingers 7.12502 0 0
rthumb -24.669 95.002 0
